<?xml version="1.0" encoding="UTF-8"?>
<svg id="Page_1" data-name="Page 1" xmlns="http://www.w3.org/2000/svg" viewBox="0 0 1300 900">
  <defs>
    <style>
      .cls-1 {
        fill: #fff;
      }
    </style>
  </defs>
  <rect x="-13.59" y="-9.41" width="1327.18" height="918.82"/>
  <g>
    <path class="cls-1" d="M420.38,458.54c.38,16.32,13.37,29.61,29.5,30.55v-6.76c-2.48-.19-4.85-.74-7.08-1.6-8.9-3.45-15.31-11.87-15.83-21.85,0-.01,0-.02,0-.04,0-.07,0-.14,0-.22,0-.07,0-.15,0-.22-.01-.28-.02-.56-.02-.84,0-10.01,5.92-18.64,14.44-22.57.47-.22.94-.42,1.42-.6,2.22-.87,4.6-1.42,7.08-1.6v-16.04c0-3.01-2.29-5.55-5.29-5.8-.22-.02-.44-.03-.66-.03v11.86c0,5.82-3.09,5.03-8.1,7.99-9.45,5.57-15.72,15.95-15.45,27.77ZM442.8,474.86c2.16,1.12,4.55,1.86,7.08,2.1v-6.06c-2.7-.38-5.14-1.57-7.08-3.31-2.76-2.47-4.5-6.05-4.5-10.04,0-3.98,1.74-7.57,4.5-10.04,1.94-1.74,4.38-2.92,7.08-3.31v-6.06c-2.53.25-4.92.98-7.08,2.1-6.24,3.25-10.52,9.79-10.52,17.31,0,7.52,4.27,14.05,10.52,17.3ZM449.88,465.66v-16.21c-3.68.86-6.42,4.17-6.42,8.11,0,3.94,2.74,7.24,6.42,8.1ZM459.36,410.91c-3.14.06-5.62,2.69-5.62,5.83v72.34c16.04-1.03,28.95-14.28,29.32-30.54.31-13.21-7.56-24.63-18.91-29.53-2.81-1.21-4.64-3.96-4.64-7.02v-11.08c-.05,0-.1,0-.15,0Z"/>
    <g>
      <path class="cls-1" d="M527.4,451.55c2.71-.49,4.8-1.56,6.27-3.2,1.48-1.64,2.21-3.79,2.21-6.46,0-3.61-1.37-6.4-4.12-8.36-2.75-1.97-6.62-2.95-11.62-2.95h-16.36v43.04h17.16c5.25,0,9.31-1.08,12.18-3.23s4.3-5.11,4.3-8.89c0-2.95-.87-5.25-2.61-6.89-1.74-1.64-4.21-2.67-7.41-3.08ZM513.01,437.84h7.38c1.97,0,3.51.47,4.61,1.41,1.11.94,1.66,2.21,1.66,3.81s-.55,2.87-1.66,3.81c-1.11.94-2.64,1.41-4.61,1.41h-7.38v-10.45ZM526.14,464.9c-1.21.94-2.92,1.42-5.13,1.42h-7.99v-10.88h7.99c2.17,0,3.87.48,5.1,1.45,1.23.96,1.84,2.33,1.84,4.09s-.61,2.99-1.81,3.94Z"/>
      <rect class="cls-1" x="541.8" y="442.02" width="8.67" height="31.61"/>
      <rect class="cls-1" x="541.8" y="430.58" width="8.67" height="7.26"/>
      <rect class="cls-1" x="672.55" y="430.58" width="8.67" height="7.26"/>
      <path class="cls-1" d="M578.54,446.39c-2.42-3.2-5.7-4.8-9.84-4.8-2.79,0-5.3.66-7.53,1.97-2.23,1.31-3.98,3.18-5.23,5.6-1.25,2.42-1.88,5.21-1.88,8.36s.63,6,1.88,8.39c1.25,2.4,2.98,4.25,5.2,5.57s4.71,1.97,7.5,1.97c4.22,0,7.48-1.46,9.78-4.37v3.32c0,2.42-.68,4.24-2.03,5.47-1.35,1.23-3.26,1.84-5.72,1.84-1.97,0-3.56-.41-4.77-1.23-1.21-.82-2.02-1.99-2.43-3.51h-8.73c.21,3.61,1.68,6.4,4.43,8.36,2.75,1.97,6.35,2.95,10.82,2.95,5.78,0,10.04-1.23,12.79-3.69,2.75-2.46,4.12-5.76,4.12-9.9v-30.68h-7.62l-.74,4.37ZM576.26,464.03c-1.39,1.64-3.26,2.46-5.6,2.46s-4.21-.82-5.63-2.46c-1.41-1.64-2.12-3.79-2.12-6.46s.71-4.83,2.12-6.49c1.42-1.66,3.29-2.49,5.63-2.49s4.2.84,5.6,2.52c1.39,1.68,2.09,3.85,2.09,6.52s-.7,4.76-2.09,6.4Z"/>
      <path class="cls-1" d="M623.56,433.04c-3.24-1.89-6.93-2.83-11.07-2.83s-7.83.94-11.07,2.83-5.76,4.5-7.56,7.84-2.71,7.08-2.71,11.22.9,7.88,2.71,11.22c1.8,3.34,4.33,5.95,7.56,7.84s6.93,2.83,11.07,2.83,7.83-.94,11.07-2.83c3.24-1.89,5.76-4.5,7.56-7.84,1.8-3.34,2.71-7.08,2.71-11.22s-.9-7.88-2.71-11.22-4.33-5.95-7.56-7.84ZM622.88,459.36c-.98,2.13-2.38,3.8-4.18,5.01-1.8,1.21-3.87,1.81-6.21,1.81s-4.47-.6-6.27-1.81c-1.8-1.21-3.2-2.88-4.18-5.01-.98-2.13-1.48-4.55-1.48-7.26s.49-5.12,1.48-7.26c.98-2.13,2.38-3.8,4.18-5.01,1.8-1.21,3.89-1.81,6.27-1.81s4.41.6,6.21,1.81c1.8,1.21,3.2,2.88,4.18,5.01.98,2.13,1.48,4.55,1.48,7.26s-.49,5.12-1.48,7.26Z"/>
      <rect class="cls-1" x="672.55" y="442.02" width="8.67" height="31.61"/>
      <path class="cls-1" d="M710.1,443.65c-2.52-1.33-5.44-2-8.76-2s-6.24.67-8.76,2c-2.52,1.33-4.47,3.23-5.84,5.69-1.37,2.46-2.06,5.29-2.06,8.49s.69,6.03,2.06,8.49c1.37,2.46,3.32,4.36,5.84,5.69,2.52,1.33,5.44,2,8.76,2s6.24-.67,8.76-2c2.52-1.33,4.47-3.22,5.84-5.66,1.37-2.44,2.06-5.28,2.06-8.52s-.69-6.03-2.06-8.49c-1.37-2.46-3.32-4.36-5.84-5.69ZM707.09,464.4c-1.41,1.68-3.33,2.52-5.75,2.52s-4.27-.84-5.69-2.52c-1.42-1.68-2.12-3.87-2.12-6.58s.71-4.9,2.12-6.58c1.41-1.68,3.31-2.52,5.69-2.52s4.34.84,5.75,2.52c1.41,1.68,2.12,3.87,2.12,6.58s-.71,4.9-2.12,6.58Z"/>
      <path class="cls-1" d="M772.49,456.9c-.69-.28-1.54-.52-2.56-.7-1-.19-1.73-.35-2.21-.49s-.84-.32-1.1-.54-.39-.54-.39-.94c0-.56.22-1,.65-1.3.43-.3,1.01-.46,1.73-.46.78,0,1.41.2,1.88.6s.75.92.82,1.57h3.18c-.01-.91-.28-1.72-.79-2.45-.51-.72-1.21-1.29-2.1-1.7-.89-.41-1.89-.62-3-.62s-2.05.2-2.91.59c-.86.4-1.53.94-2.01,1.63-.48.69-.73,1.48-.73,2.36,0,.97.21,1.74.64,2.33.43.58.98,1.02,1.66,1.32.68.3,1.52.54,2.51.73,1.01.2,1.76.37,2.24.51.48.14.86.32,1.13.56.27.24.4.56.4.96,0,.58-.24,1.03-.73,1.35-.48.32-1.11.49-1.87.49-.92,0-1.66-.23-2.22-.68-.56-.45-.86-1.06-.92-1.81l-3.18-.04c.01.97.29,1.84.82,2.62s1.27,1.39,2.22,1.83c.95.44,2.02.66,3.24.66,1.13,0,2.14-.21,3.04-.63s1.61-.99,2.11-1.72c.5-.73.76-1.55.76-2.48s-.21-1.71-.64-2.28c-.43-.57-.99-1-1.68-1.28Z"/>
      <polygon class="cls-1" points="782.22 458.86 787.85 458.86 787.85 456.19 782.22 456.19 782.22 452.79 789.15 452.79 789.15 450 778.97 450 778.97 465.16 789.39 465.16 789.39 462.36 782.22 462.36 782.22 458.86"/>
      <path class="cls-1" d="M799.8,452.62c.89,0,1.64.25,2.24.75.6.5.99,1.18,1.18,2.05h3.25c-.12-1.1-.46-2.06-1.04-2.9-.58-.84-1.34-1.49-2.27-1.95-.94-.46-2-.69-3.18-.69-1.52,0-2.83.32-3.95.95-1.12.64-1.98,1.53-2.58,2.7-.6,1.16-.9,2.51-.9,4.06s.3,2.9.9,4.06c.6,1.16,1.46,2.06,2.58,2.7,1.12.64,2.44.95,3.95.95,1.18,0,2.25-.23,3.18-.69.94-.46,1.7-1.11,2.27-1.95.58-.84.92-1.8,1.04-2.9h-3.25c-.19.87-.58,1.55-1.18,2.05-.6.5-1.35.75-2.24.75-1.21,0-2.17-.46-2.88-1.38-.71-.92-1.06-2.11-1.06-3.58s.35-2.68,1.06-3.59c.71-.91,1.67-1.36,2.88-1.36Z"/>
      <path class="cls-1" d="M819.53,458.79c0,1.23-.24,2.15-.73,2.77-.48.62-1.24.93-2.26.93s-1.78-.31-2.25-.93c-.48-.62-.71-1.54-.71-2.77v-8.79h-3.25v8.62c0,2.17.53,3.82,1.58,4.96,1.05,1.14,2.6,1.71,4.63,1.71s3.58-.57,4.64-1.71c1.06-1.14,1.59-2.79,1.59-4.96v-8.62h-3.25v8.79Z"/>
      <path class="cls-1" d="M838.56,457.61c.46-.74.69-1.6.69-2.57s-.23-1.9-.69-2.66c-.46-.77-1.12-1.35-1.96-1.76-.84-.41-1.82-.62-2.91-.62h-6.17v15.16h3.25v-5.09h2.75l2.53,5.09h3.59l-2.99-5.85c.81-.39,1.44-.96,1.91-1.7ZM835.26,456.73c-.46.42-1.06.63-1.83.63h-2.66v-4.66h2.66c.77,0,1.38.21,1.83.63.46.42.68.99.68,1.71s-.23,1.27-.68,1.69Z"/>
      <rect class="cls-1" x="843.54" y="450" width="3.25" height="15.16"/>
      <polygon class="cls-1" points="850.32 452.79 854.69 452.79 854.69 465.16 857.94 465.16 857.94 452.79 862.31 452.79 862.31 450 850.32 450 850.32 452.79"/>
      <polygon class="cls-1" points="876.01 450 872.44 456.21 869.04 450 865.25 450 870.81 459.53 870.81 465.16 874.06 465.16 874.06 459.53 879.63 450 876.01 450"/>
      <path class="cls-1" d="M655.15,441.65c-.35,0-.67.03-1,.04v-.02h-16.14v31.95h8.67v-22.21l-5.67-2.64h11.74c4.26,0,6.4,2.73,6.4,8.18v16.67h8.67v-17.16c0-5.29-1.19-9.08-3.57-11.38-2.38-2.3-5.41-3.44-9.1-3.44Z"/>
      <path class="cls-1" d="M738.84,441.65c-.35,0-.67.03-1,.04v-.02h-16.14v31.95h8.67v-22.21l-5.67-2.64h11.74c4.26,0,6.4,2.73,6.4,8.18v16.67h8.67v-17.16c0-5.29-1.19-9.08-3.57-11.38-2.38-2.3-5.41-3.44-9.1-3.44Z"/>
    </g>
  </g>
</svg>